<?xml version="1.0" encoding="UTF-8"?><svg id="Layer_1" xmlns="http://www.w3.org/2000/svg" viewBox="0 0 4405.47 648.66"><defs><style>.cls-1{fill:#fff;}</style></defs><path class="cls-1" d="M21.66,266.17c7.46-13.22,17.64-23.57,30.54-31.03,12.9-7.46,27.22-11.19,42.96-11.19,18.5,0,34.64,4.46,48.43,13.38,13.79,8.92,23.85,21.58,30.18,37.97h-26.53c-4.71-10.22-11.48-18.09-20.32-23.61-8.85-5.51-19.43-8.27-31.76-8.27s-22.47,2.76-31.88,8.27c-9.41,5.52-16.79,13.35-22.15,23.49-5.35,10.14-8.03,22.03-8.03,35.65s2.68,25.27,8.03,35.41c5.35,10.14,12.74,17.97,22.15,23.49,9.41,5.52,20.04,8.27,31.88,8.27s22.91-2.71,31.76-8.15c8.84-5.43,15.61-13.26,20.32-23.49h26.53c-6.33,16.23-16.39,28.76-30.18,37.6-13.79,8.85-29.93,13.26-48.43,13.26-15.74,0-30.06-3.69-42.96-11.07-12.9-7.38-23.08-17.64-30.54-30.79-7.46-13.14-11.2-27.99-11.2-44.54s3.73-31.43,11.2-44.66Z"/><path class="cls-1" d="M245.44,266.29c7.22-4.22,16.02-6.33,26.41-6.33v22.88h-5.84c-24.82,0-37.24,13.47-37.24,40.4v72.52h-22.15v-133.37h22.15v21.66c3.89-7.62,9.45-13.54,16.67-17.77Z"/><path class="cls-1" d="M418.35,337.36h-106.6c.81,13.14,5.31,23.41,13.51,30.79,8.19,7.38,18.13,11.07,29.81,11.07,9.57,0,17.56-2.23,23.97-6.69,6.41-4.46,10.91-10.42,13.51-17.89h23.85c-3.57,12.82-10.71,23.24-21.42,31.27-10.71,8.03-24.01,12.05-39.91,12.05-12.66,0-23.97-2.84-33.95-8.52-9.98-5.68-17.81-13.75-23.49-24.21-5.68-10.46-8.52-22.59-8.52-36.38s2.76-25.88,8.27-36.26c5.51-10.38,13.26-18.38,23.24-23.97,9.98-5.6,21.46-8.4,34.44-8.4s23.85,2.76,33.59,8.28c9.73,5.52,17.24,13.1,22.51,22.75,5.27,9.66,7.91,20.57,7.91,32.73,0,4.22-.24,8.68-.73,13.39ZM390.61,297.57c-3.73-6.08-8.8-10.71-15.21-13.87-6.41-3.16-13.51-4.75-21.29-4.75-11.2,0-20.73,3.57-28.6,10.71-7.87,7.14-12.37,17.04-13.51,29.69h84.21c0-8.43-1.87-15.7-5.6-21.78Z"/><path class="cls-1" d="M448.28,292.7c5.51-10.3,13.1-18.29,22.76-23.97,9.65-5.68,20.4-8.52,32.25-8.52s21.82,2.52,30.42,7.54c8.6,5.03,15.01,11.36,19.23,18.98v-24.34h22.39v133.37h-22.39v-24.82c-4.38,7.79-10.91,14.24-19.59,19.35-8.68,5.11-18.78,7.67-30.3,7.67s-22.55-2.92-32.13-8.76c-9.58-5.84-17.12-14.03-22.63-24.58-5.52-10.54-8.27-22.55-8.27-36.02s2.76-25.59,8.27-35.9ZM546.85,302.55c-4.06-7.46-9.53-13.18-16.43-17.16-6.9-3.97-14.48-5.96-22.76-5.96s-15.82,1.95-22.63,5.84c-6.81,3.89-12.25,9.58-16.31,17.04-4.06,7.46-6.08,16.23-6.08,26.28s2.03,19.1,6.08,26.65c4.05,7.54,9.49,13.31,16.31,17.28,6.81,3.98,14.36,5.96,22.63,5.96s15.86-1.99,22.76-5.96c6.89-3.97,12.37-9.73,16.43-17.28,4.05-7.54,6.08-16.34,6.08-26.41s-2.03-18.82-6.08-26.28Z"/><path class="cls-1" d="M639.82,280.65v78.61c0,6.49,1.38,11.07,4.14,13.75,2.76,2.68,7.54,4.02,14.36,4.02h16.31v18.74h-19.96c-12.33,0-21.58-2.84-27.74-8.52-6.17-5.68-9.25-15.01-9.25-27.99v-78.61h-17.28v-18.25h17.28v-33.58h22.15v33.58h34.8v18.25h-34.8Z"/><path class="cls-1" d="M822.34,337.36h-106.6c.81,13.14,5.31,23.41,13.51,30.79,8.19,7.38,18.13,11.07,29.81,11.07,9.57,0,17.56-2.23,23.97-6.69,6.41-4.46,10.91-10.42,13.51-17.89h23.85c-3.57,12.82-10.71,23.24-21.42,31.27-10.71,8.03-24.01,12.05-39.91,12.05-12.66,0-23.97-2.84-33.95-8.52-9.98-5.68-17.81-13.75-23.49-24.21-5.68-10.46-8.52-22.59-8.52-36.38s2.76-25.88,8.27-36.26c5.51-10.38,13.26-18.38,23.24-23.97,9.98-5.6,21.46-8.4,34.44-8.4s23.85,2.76,33.59,8.28c9.73,5.52,17.24,13.1,22.51,22.75,5.27,9.66,7.91,20.57,7.91,32.73,0,4.22-.24,8.68-.73,13.39ZM794.6,297.57c-3.73-6.08-8.8-10.71-15.21-13.87-6.41-3.16-13.51-4.75-21.29-4.75-11.2,0-20.73,3.57-28.6,10.71-7.87,7.14-12.37,17.04-13.51,29.69h84.21c0-8.43-1.87-15.7-5.6-21.78Z"/><path class="cls-1" d="M1019.11,315.94c5.11,4.06,9.16,9.09,12.17,15.09,3,6,4.5,12.41,4.5,19.23,0,8.6-2.19,16.35-6.57,23.24-4.38,6.9-10.75,12.33-19.1,16.31-8.36,3.98-18.21,5.96-29.57,5.96h-63.28v-169.63h60.84c11.52,0,21.33,1.91,29.45,5.72,8.11,3.81,14.2,8.97,18.25,15.45,4.05,6.49,6.08,13.79,6.08,21.9,0,10.06-2.72,18.38-8.15,24.95-5.44,6.57-12.62,11.32-21.54,14.24,6.16.97,11.8,3.49,16.91,7.54ZM939.4,299.39h37.24c10.38,0,18.41-2.43,24.09-7.3,5.68-4.87,8.52-11.6,8.52-20.2s-2.84-15.33-8.52-20.2c-5.68-4.87-13.87-7.3-24.58-7.3h-36.75v55ZM1004.38,369.73c6.16-5.19,9.25-12.41,9.25-21.66s-3.25-16.83-9.73-22.27c-6.49-5.43-15.17-8.15-26.04-8.15h-38.45v59.87h39.18c11.03,0,19.63-2.59,25.8-7.79Z"/><path class="cls-1" d="M1181.31,262.4l-80.31,196.16h-22.88l26.28-64.25-53.79-131.91h24.58l41.86,108.06,41.37-108.06h22.88Z"/><path class="cls-1" d="M2155.28,227.35v168.41h-22.15v-125.58l-55.98,125.58h-15.58l-56.22-125.82v125.82h-22.15v-168.41h23.85l62.3,139.21,62.3-139.21h23.61Z"/><path class="cls-1" d="M2192.76,292.7c5.51-10.3,13.1-18.29,22.75-23.97,9.65-5.68,20.4-8.52,32.25-8.52s21.82,2.52,30.42,7.54c8.6,5.03,15.01,11.36,19.23,18.98v-24.34h22.39v133.37h-22.39v-24.82c-4.38,7.79-10.91,14.24-19.59,19.35-8.68,5.11-18.78,7.67-30.3,7.67s-22.55-2.92-32.13-8.76c-9.58-5.84-17.12-14.03-22.63-24.58-5.52-10.54-8.28-22.55-8.28-36.02s2.76-25.59,8.28-35.9ZM2291.33,302.55c-4.06-7.46-9.53-13.18-16.43-17.16-6.9-3.97-14.48-5.96-22.75-5.96s-15.82,1.95-22.63,5.84c-6.81,3.89-12.25,9.58-16.31,17.04-4.06,7.46-6.08,16.23-6.08,26.28s2.03,19.1,6.08,26.65c4.05,7.54,9.49,13.31,16.31,17.28,6.81,3.98,14.36,5.96,22.63,5.96s15.86-1.99,22.75-5.96c6.89-3.97,12.37-9.73,16.43-17.28,4.05-7.54,6.08-16.34,6.08-26.41s-2.03-18.82-6.08-26.28Z"/><path class="cls-1" d="M2396.1,266.29c7.22-4.22,16.02-6.33,26.41-6.33v22.88h-5.84c-24.82,0-37.24,13.47-37.24,40.4v72.52h-22.15v-133.37h22.15v21.66c3.89-7.62,9.45-13.54,16.67-17.77Z"/><path class="cls-1" d="M2522.53,395.77l-52.33-58.9v58.9h-22.15v-180.1h22.15v105.87l51.35-59.14h30.91l-62.79,66.44,63.03,66.93h-30.18Z"/><path class="cls-1" d="M2694.34,337.36h-106.6c.81,13.14,5.31,23.41,13.51,30.79,8.19,7.38,18.13,11.07,29.81,11.07,9.57,0,17.56-2.23,23.97-6.69,6.41-4.46,10.91-10.42,13.51-17.89h23.85c-3.57,12.82-10.71,23.24-21.42,31.27-10.71,8.03-24.01,12.05-39.91,12.05-12.66,0-23.97-2.84-33.95-8.52-9.98-5.68-17.81-13.75-23.49-24.21-5.68-10.46-8.52-22.59-8.52-36.38s2.76-25.88,8.27-36.26c5.51-10.38,13.26-18.38,23.24-23.97,9.98-5.6,21.46-8.4,34.44-8.4s23.85,2.76,33.58,8.28c9.74,5.52,17.24,13.1,22.51,22.75,5.27,9.66,7.91,20.57,7.91,32.73,0,4.22-.24,8.68-.73,13.39ZM2666.6,297.57c-3.73-6.08-8.8-10.71-15.21-13.87-6.41-3.16-13.51-4.75-21.29-4.75-11.2,0-20.73,3.57-28.6,10.71-7.87,7.14-12.37,17.04-13.51,29.69h84.21c0-8.43-1.87-15.7-5.6-21.78Z"/><path class="cls-1" d="M2751.29,280.65v78.61c0,6.49,1.38,11.07,4.14,13.75,2.76,2.68,7.54,4.02,14.36,4.02h16.31v18.74h-19.96c-12.33,0-21.58-2.84-27.74-8.52-6.17-5.68-9.25-15.01-9.25-27.99v-78.61h-17.28v-18.25h17.28v-33.58h22.15v33.58h34.8v18.25h-34.8Z"/><path class="cls-1" d="M2813.6,236.36c-2.92-2.92-4.38-6.49-4.38-10.71s1.46-7.79,4.38-10.71c2.92-2.92,6.49-4.38,10.71-4.38s7.5,1.46,10.34,4.38c2.84,2.92,4.26,6.49,4.26,10.71s-1.42,7.79-4.26,10.71c-2.84,2.92-6.29,4.38-10.34,4.38s-7.79-1.46-10.71-4.38ZM2835.01,262.4v133.37h-22.15v-133.37h22.15Z"/><path class="cls-1" d="M2977.14,274.69c10.06,9.82,15.09,23.97,15.09,42.47v78.61h-21.9v-75.45c0-13.3-3.33-23.49-9.98-30.54-6.65-7.06-15.74-10.59-27.26-10.59s-20.97,3.65-27.87,10.95c-6.9,7.3-10.34,17.93-10.34,31.88v73.74h-22.15v-133.37h22.15v18.98c4.38-6.81,10.34-12.08,17.89-15.82,7.54-3.73,15.86-5.6,24.95-5.6,16.22,0,29.36,4.91,39.43,14.72Z"/><path class="cls-1" d="M3113.79,267.75c8.68,5.03,15.13,11.36,19.35,18.98v-24.34h22.39v136.29c0,12.17-2.6,23-7.79,32.49-5.19,9.49-12.62,16.92-22.27,22.27-9.66,5.35-20.89,8.03-33.71,8.03-17.52,0-32.12-4.14-43.81-12.41-11.68-8.28-18.58-19.55-20.69-33.83h21.9c2.43,8.11,7.46,14.64,15.09,19.59,7.62,4.95,16.79,7.42,27.5,7.42,12.17,0,22.1-3.81,29.81-11.44,7.71-7.63,11.56-18.34,11.56-32.12v-27.99c-4.38,7.79-10.87,14.28-19.47,19.47-8.6,5.19-18.66,7.79-30.18,7.79s-22.6-2.92-32.25-8.76c-9.66-5.84-17.24-14.03-22.76-24.58-5.52-10.54-8.27-22.55-8.27-36.02s2.76-25.59,8.27-35.9c5.51-10.3,13.1-18.29,22.76-23.97,9.65-5.68,20.4-8.52,32.25-8.52s21.62,2.52,30.3,7.54ZM3127.06,302.55c-4.06-7.46-9.53-13.18-16.43-17.16-6.9-3.97-14.48-5.96-22.76-5.96s-15.82,1.95-22.63,5.84c-6.81,3.89-12.25,9.58-16.31,17.04-4.06,7.46-6.08,16.23-6.08,26.28s2.03,19.1,6.08,26.65c4.05,7.54,9.49,13.31,16.31,17.28,6.81,3.98,14.36,5.96,22.63,5.96s15.86-1.99,22.76-5.96c6.89-3.97,12.37-9.73,16.43-17.28,4.05-7.54,6.08-16.34,6.08-26.41s-2.03-18.82-6.08-26.28Z"/><path class="cls-1" d="M3281.72,391.51c-8.85-3.97-15.78-9.49-20.81-16.55-5.03-7.06-7.63-15.21-7.79-24.46h23.61c.81,7.95,4.1,14.64,9.86,20.08,5.76,5.44,14.15,8.15,25.19,8.15s18.86-2.63,24.95-7.91c6.08-5.27,9.13-12.05,9.13-20.32,0-6.49-1.79-11.76-5.35-15.82-3.57-4.05-8.03-7.14-13.39-9.25-5.35-2.11-12.58-4.38-21.66-6.81-11.2-2.92-20.16-5.84-26.89-8.76-6.73-2.92-12.5-7.5-17.28-13.75-4.79-6.24-7.18-14.64-7.18-25.19,0-9.25,2.35-17.44,7.06-24.58,4.7-7.14,11.32-12.66,19.83-16.55,8.52-3.89,18.29-5.84,29.33-5.84,15.9,0,28.92,3.98,39.06,11.92,10.14,7.95,15.86,18.5,17.16,31.64h-24.34c-.81-6.49-4.22-12.21-10.22-17.16-6-4.95-13.96-7.42-23.85-7.42-9.25,0-16.79,2.4-22.63,7.18-5.84,4.79-8.76,11.48-8.76,20.08,0,6.17,1.74,11.2,5.23,15.09,3.49,3.89,7.79,6.86,12.9,8.88,5.11,2.03,12.29,4.34,21.54,6.94,11.19,3.08,20.2,6.13,27.01,9.13,6.81,3,12.66,7.63,17.52,13.87,4.87,6.25,7.3,14.72,7.3,25.43,0,8.27-2.19,16.06-6.57,23.36s-10.87,13.23-19.47,17.77c-8.6,4.54-18.74,6.81-30.42,6.81s-21.21-1.98-30.06-5.96Z"/><path class="cls-1" d="M3425.06,389.44c-10.14-5.68-18.09-13.75-23.85-24.21-5.76-10.46-8.64-22.59-8.64-36.38s2.96-25.68,8.88-36.14c5.92-10.46,13.99-18.5,24.22-24.09s21.66-8.4,34.32-8.4,24.09,2.8,34.32,8.4,18.29,13.59,24.22,23.97c5.92,10.38,8.88,22.47,8.88,36.26s-3.04,25.92-9.13,36.38c-6.08,10.46-14.32,18.54-24.7,24.21-10.39,5.68-21.9,8.52-34.56,8.52s-23.81-2.84-33.95-8.52ZM3481.4,372.89c6.97-3.73,12.61-9.33,16.91-16.79,4.3-7.46,6.45-16.55,6.45-27.26s-2.11-19.79-6.33-27.26c-4.22-7.46-9.74-13.02-16.55-16.67-6.81-3.65-14.2-5.48-22.15-5.48s-15.54,1.83-22.27,5.48c-6.73,3.65-12.13,9.21-16.18,16.67-4.06,7.46-6.08,16.55-6.08,27.26s1.99,20.04,5.96,27.5c3.97,7.46,9.29,13.02,15.94,16.67,6.65,3.65,13.95,5.48,21.9,5.48s15.41-1.86,22.39-5.6Z"/><path class="cls-1" d="M3578.75,215.67v180.1h-22.15v-180.1h22.15Z"/><path class="cls-1" d="M3734.75,262.4v133.37h-22.15v-19.71c-4.22,6.81-10.1,12.13-17.64,15.94-7.54,3.81-15.86,5.72-24.95,5.72-10.38,0-19.71-2.15-27.99-6.45-8.27-4.3-14.81-10.75-19.59-19.35-4.79-8.6-7.18-19.06-7.18-31.39v-78.12h21.9v75.2c0,13.14,3.32,23.24,9.98,30.3,6.65,7.06,15.74,10.59,27.26,10.59s21.17-3.65,27.99-10.95c6.81-7.3,10.22-17.93,10.22-31.88v-73.25h22.15Z"/><path class="cls-1" d="M3799.24,280.65v78.61c0,6.49,1.38,11.07,4.14,13.75,2.76,2.68,7.54,4.02,14.36,4.02h16.31v18.74h-19.96c-12.33,0-21.58-2.84-27.74-8.52-6.17-5.68-9.25-15.01-9.25-27.99v-78.61h-17.28v-18.25h17.28v-33.58h22.15v33.58h34.8v18.25h-34.8Z"/><path class="cls-1" d="M3861.54,236.36c-2.92-2.92-4.38-6.49-4.38-10.71s1.46-7.79,4.38-10.71c2.92-2.92,6.49-4.38,10.71-4.38s7.5,1.46,10.34,4.38c2.84,2.92,4.26,6.49,4.26,10.71s-1.42,7.79-4.26,10.71c-2.84,2.92-6.29,4.38-10.34,4.38s-7.79-1.46-10.71-4.38ZM3882.96,262.4v133.37h-22.15v-133.37h22.15Z"/><path class="cls-1" d="M3944.9,389.44c-10.14-5.68-18.09-13.75-23.85-24.21-5.76-10.46-8.64-22.59-8.64-36.38s2.96-25.68,8.88-36.14c5.92-10.46,13.99-18.5,24.22-24.09s21.66-8.4,34.32-8.4,24.09,2.8,34.32,8.4,18.29,13.59,24.22,23.97c5.92,10.38,8.88,22.47,8.88,36.26s-3.04,25.92-9.13,36.38c-6.08,10.46-14.32,18.54-24.7,24.21-10.39,5.68-21.9,8.52-34.56,8.52s-23.81-2.84-33.95-8.52ZM4001.24,372.89c6.97-3.73,12.61-9.33,16.91-16.79,4.3-7.46,6.45-16.55,6.45-27.26s-2.11-19.79-6.33-27.26c-4.22-7.46-9.74-13.02-16.55-16.67-6.81-3.65-14.2-5.48-22.15-5.48s-15.54,1.83-22.27,5.48c-6.73,3.65-12.13,9.21-16.18,16.67-4.06,7.46-6.08,16.55-6.08,27.26s1.99,20.04,5.96,27.5c3.97,7.46,9.29,13.02,15.94,16.67,6.65,3.65,13.95,5.48,21.9,5.48s15.41-1.86,22.39-5.6Z"/><path class="cls-1" d="M4180.85,274.69c10.06,9.82,15.09,23.97,15.09,42.47v78.61h-21.9v-75.45c0-13.3-3.33-23.49-9.98-30.54-6.65-7.06-15.74-10.59-27.26-10.59s-20.97,3.65-27.87,10.95c-6.9,7.3-10.34,17.93-10.34,31.88v73.74h-22.15v-133.37h22.15v18.98c4.38-6.81,10.34-12.08,17.89-15.82,7.54-3.73,15.86-5.6,24.95-5.6,16.22,0,29.36,4.91,39.43,14.72Z"/><path class="cls-1" d="M4251.91,392.72c-8.12-3.49-14.52-8.35-19.23-14.6-4.71-6.24-7.3-13.42-7.79-21.54h22.88c.65,6.65,3.77,12.09,9.37,16.31,5.6,4.22,12.94,6.33,22.03,6.33,8.43,0,15.09-1.86,19.96-5.6,4.87-3.73,7.3-8.43,7.3-14.12s-2.6-10.18-7.79-13.02c-5.2-2.84-13.23-5.63-24.09-8.4-9.9-2.59-17.97-5.23-24.21-7.91-6.25-2.68-11.6-6.65-16.06-11.92-4.46-5.27-6.69-12.21-6.69-20.81,0-6.81,2.03-13.06,6.08-18.74,4.05-5.68,9.81-10.18,17.28-13.51,7.46-3.32,15.98-4.99,25.55-4.99,14.76,0,26.69,3.73,35.78,11.2,9.08,7.46,13.95,17.69,14.6,30.67h-22.15c-.49-6.97-3.29-12.57-8.4-16.79-5.11-4.22-11.97-6.33-20.56-6.33-7.95,0-14.28,1.7-18.98,5.11-4.71,3.41-7.06,7.87-7.06,13.39,0,4.38,1.42,7.99,4.26,10.83,2.84,2.84,6.41,5.11,10.71,6.81,4.3,1.7,10.26,3.61,17.89,5.72,9.57,2.6,17.36,5.15,23.36,7.67,6,2.52,11.15,6.29,15.45,11.32,4.3,5.03,6.53,11.6,6.69,19.71,0,7.3-2.03,13.87-6.08,19.71-4.06,5.84-9.78,10.43-17.16,13.75-7.38,3.32-15.86,4.99-25.43,4.99-10.22,0-19.39-1.75-27.5-5.23Z"/><polygon class="cls-1" points="1505.99 537.36 1509.22 535.23 1554.99 604.59 1785.38 326.27 1744.26 326.27 1744.26 322.4 1798.26 322.4 1579.4 648.66 1555.01 611.59 1554.99 611.61 1505.99 537.36"/><path class="cls-1" d="M1462.65,359.47c0,.3-.11.44-.33.44h-26.8c-.33,0-.53-.06-.61-.17-.07-.11-.11-.24-.11-.39v-1.71c0-.33.05-.52.17-.58.11-.06.24-.08.39-.08h7.51c.52,0,.77-.53.77-1.6l-.11-57.13c0-6.96-.64-10.44-1.93-10.44h-7.02c-.52,0-.77-.18-.77-.55v-1.93c0-.29.18-.44.55-.44h26.8c.33,0,.5.15.5.44v2.04c0,.3-.2.44-.61.44h-7.79c-.66,0-.99.39-.99,1.16-.07,33.45-.11,50.72-.11,51.83,0,5.45.02,8.56.06,9.34.26,4.57.99,6.85,2.21,6.85h7.79c.29,0,.44.15.44.44v2.04Z"/><path class="cls-1" d="M1576.19,356.98h-7.79c-1.21,0-1.95-2.28-2.21-6.85-.04-.77-.06-3.88-.06-9.34,0-1.1.04-18.38.11-51.83,0-.77.33-1.16.99-1.16h7.79c.41,0,.61-.14.61-.44v-2.05c0-.3-.17-.44-.49-.44h-26.8c-.37,0-.55.14-.55.44v1.93c0,.37.26.55.77.55h7.02c1.29,0,1.93,3.49,1.93,10.44l.11,57.13c0,1.07-.26,1.6-.77,1.6h-15.51c-1.3,0-2.6-.12-3.86-.46-1.57-.43-2.98-1.11-4.22-2.02-1.74-1.29-3.84-3.22-6.3-5.8-1.4-1.51-3.63-4-6.68-7.46-5.86-6.63-9.6-12.07-11.22-16.3-.08-.3.04-.52.33-.66,4.93-1.66,8.49-3.67,10.66-6.03,3.53-3.83,5.3-8.73,5.3-14.7,0-5.23-1.8-9.56-5.41-12.98-3.09-2.99-7.19-4.88-12.26-5.69-2.29-.37-4.62-.55-7.02-.55-.44,0-2.52.08-6.21.22-3.71.15-5.81.22-6.33.22h-16.52c-.24,0-.44.2-.44.44v2.05c0,.3.18.45.55.45h7.02c1.21,0,1.86,5.06,1.93,15.19v52.38c0,1.14-.3,1.71-.89,1.71h-7.24c-.18,0-.33.03-.44.08-.11.05-.17.25-.17.58v1.71c0,.14.04.27.11.39.07.11.27.17.61.17h29.29c.29,0,.44-.19.44-.55v-1.83c0-.31-.25-.55-.55-.55h-9.84c-1.65,0-2.49-4.03-2.49-12.1,0-4.39-.02-8.56-.05-12.51-.04-3.96-.05-6.29-.05-7,0-.55.3-.74.88-.55,4.39.44,7.44.66,9.18.66.33,0,.62.31.88.94,3.9,7,6.97,12.16,9.17,15.47,1.99,2.69,3.98,5.38,5.97,8.06,3.75,4.98,6.33,8.07,7.73,9.28.52.44.98.67,1.38.67h51.72c.22,0,.33-.15.33-.45v-2.04c0-.25-.2-.45-.45-.45ZM1502.51,321.79c-1.97.3-3.75.44-5.33.44-3.83,0-6.17-.08-7.02-.22-.52-.11-.77-.37-.77-.77v-12.6c.14-2.61.22-9.21.22-19.78.11-.52.79-.77,2.05-.77,8.58,0,15.14,2.14,19.67,6.4,3.24,3.1,4.86,7.09,4.86,11.99,0,8-3.66,12.95-10.99,14.86.18,0-.71.15-2.68.45Z"/><path class="cls-1" d="M1663.21,287.04c0,.44-.18.66-.55.66h-7.68c-.77,0-1.16.5-1.16,1.49,0,.3-.04,5.31-.11,15.06-.08,9.74-.11,15.01-.11,15.8s-.07,7.38-.22,19.75c-.15,12.38-.22,18.9-.22,19.56,0,1.73-.22,2.6-.66,2.6-.52,0-.94-.22-1.27-.66-3.35-4.49-13.28-17.26-29.78-38.29-5.86-7.85-12.75-16.59-20.66-26.24-.52-.44-.87-.29-1.05.44-.11.48-.39,7.24-.83,20.28-.41,13.19-.61,21.46-.61,24.81,0,9.8.98,14.7,2.93,14.7h7.35c.37,0,.55.15.55.44v2.04c0,.3-.15.44-.44.44h-21.71c-.48,0-.72-.11-.72-.33v-2.04c0-.37.24-.55.72-.55h6.8c.59,0,.88-.28.88-.83v-8.12c0-2.17.27-10.99.8-26.47.53-15.47.8-23.35.8-23.65,0-6.81-2.34-10.22-7.02-10.22h-3.87c-.3,0-.44-.18-.44-.55v-1.82c0-.37.18-.55.55-.55h17.46c.48,0,.89.3,1.22.88.33.59,3.38,4.74,9.14,12.46,5.76,7.72,9.01,12.02,9.75,12.9,8.25,10.98,17,22.3,26.24,33.98.15.11.29.17.44.17.26,0,.42-.52.5-1.55.04-.7.04-7.22,0-19.56-.04-12.38-.07-19.06-.11-20.06-.55-10.87-1.88-16.3-3.98-16.3h-7.57c-.48,0-.72-.18-.72-.55v-1.82c0-.37.2-.55.61-.55h24.09c.44,0,.66.15.66.44v1.82Z"/><path class="cls-1" d="M1738.24,359.36c0,.37-.11.55-.33.55h-25.47c-.37,0-.55-.22-.55-.66v-1.49c0-.52.18-.77.55-.77h7.57c.59,0,.83-.33.72-.99-.33-1.18-1.6-5.02-3.81-11.52-2.21-6.5-3.43-9.99-3.65-10.47-.3-.74-.68-1.11-1.16-1.11h-26.69c-.33.07-.61.3-.83.66-.52.99-1.4,3.32-2.65,6.99-1.25,3.67-2.03,6.16-2.32,7.49-.59,2.95-.88,4.71-.88,5.3,0,2.43.29,3.65.88,3.65h8.4c.44,0,.66.26.66.77v1.6c0,.37-.19.55-.55.55h-22.32c-.37,0-.55-.18-.55-.55v-1.82c0-.37.15-.55.44-.55h4.75c.81,0,1.91-1.73,3.29-5.19,1.38-3.46,5.5-13.46,12.35-30,4.38-10.42,9.71-23.06,15.97-37.9.4-1.14.81-1.79,1.22-1.93,1.03-.29,2.36-.75,3.98-1.38.26-.11.55.08.88.58.33.5.18,1.06-.44,1.69-1.11,1.14-1.66,2.25-1.66,3.32-.04,1.11.22,2.49.77,4.14,1.99,5.53,5.58,15.87,10.77,31.02,5.19,15.16,8.8,24.96,10.83,29.42,1.95,4.16,3.35,6.24,4.2,6.24h5.19c.29,0,.44.26.44.77v1.6ZM1710.89,327.87c-1.51-4.38-3.13-9.19-4.86-14.42-1.73-5.23-3.52-10.68-5.36-16.35-.11-.48-.26-.77-.44-.88-.15.15-.33.44-.55.88-4.61,11.27-7.91,19.26-9.92,23.98-2.01,4.72-3.01,7.15-3.01,7.29,0,.22.17.33.5.33h23.37c.37,0,.46-.28.28-.83Z"/><polygon class="cls-1" points="1658.17 111.3 1654.94 113.43 1609.18 44.07 1378.78 322.39 1419.91 322.39 1419.91 326.26 1365.9 326.26 1584.76 0 1609.15 37.07 1609.18 37.05 1658.17 111.3"/></svg>