<?xml version="1.0" encoding="UTF-8"?>
<svg id="Layer_1" data-name="Layer 1" xmlns="http://www.w3.org/2000/svg" viewBox="0 0 1954.18 814.79">
  <defs>
    <style>
      .cls-1 {
        fill: #4a7fa7;
      }

      .cls-2 {
        fill: #112250;
      }
    </style>
  </defs>
  <g>
    <path class="cls-1" d="M1158.22,17.06c-131.93-39.38-269.19-10.41-372.91,85.11-79.75,73.44-129.5,180.71-129.32,286.96.04,24.88-2.43,48.96-7.33,71.91-7.25,52.62-25.75,103.61-55.56,150.24-76.52,114.34-198.4,180.6-334.5,177.81,9.9,3.77,20.09,7.18,30.46,10.15,123.84,35.58,250.41,9.07,356.62-69.41,90.48-66.8,151.69-181.21,156.41-307.16,3.3-87.51,27.92-163.26,96.06-222.08,58.06-50.12,132.8-68.65,210.81-47.33,64.23,17.55,118.11,59.37,149.81,131.24l158.37-3.3c-39.02-141.47-141.47-229.16-258.93-264.15Z"/>
    <path class="cls-1" d="M1415.58,527.73c-41.68,143.12-148.22,247.04-287.22,277.63-141.75,28.12-281.36-16.73-376.22-126.03,35.36-48.1,60.17-95.63,74.22-150.57,32.54,44.17,64.2,87.31,107.89,110.54,121.87,64.81,263.15,19.77,321.97-110.65l159.35-.92Z"/>
    <path class="cls-2" d="M464.44,660.58c-60.27,16.28-128.16,7.94-185.09-21.51-45.98-23.72-84.79-61.21-106.69-110.53,104.44-14.69,200.33-34.49,286.45-85,14.94-8.78,30.32-17.95,45.51-27.78,48.88-31.59,95.88-69.41,121.16-119.67,2.03-4.02,3.88-8.09,5.66-12.15,19.8-45.62,26-94.22,65.35-138.31C556.96-25.19,304.84-51.15,137.77,98.33,23.07,200.96-25.27,354.83,12.81,508.23c28.43,114.63,108.58,219.55,223.82,271.77,7.18,3.23,14.51,6.27,21.98,9.1,136.1,2.79,257.99-63.46,334.5-177.81,29.81-46.64,48.3-97.62,55.56-150.24-20.56,96.28-83.81,172.33-184.22,199.53ZM272.53,176.08c82.32-46.67,186.8-45.95,266.22,16.83-85.66,144.91-236.92,192.35-390.71,208.05-4.71-96.61,50.63-182.99,124.5-224.88Z"/>
  </g>
  <g>
    <path class="cls-2" d="M906.46,507.02c-15.15,0-27.14-2.56-35.99-7.66-8.85-5.11-15.19-12.86-19.02-23.26-3.83-10.4-5.75-23.44-5.75-39.14,0-16.97,2.42-30.83,7.25-41.6,4.83-10.76,11.91-18.75,21.21-23.95,9.31-5.2,20.8-7.8,34.49-7.8,20.25,0,35.54,5.11,45.85,15.33,10.31,10.22,15.46,26.37,15.46,48.44l-1.64,20.25h-85.94c.18,10.22,2.28,17.88,6.29,22.99,4.01,5.11,10.95,7.66,20.8,7.66,5.66,0,11.86-.14,18.61-.41,6.75-.27,13.45-.59,20.12-.96,6.66-.36,12.36-.73,17.11-1.09l.82,25.45c-4.56.73-10.31,1.55-17.24,2.46-6.94.91-14.09,1.68-21.49,2.33-7.39.64-14.37.96-20.94.96ZM882.38,424.36h51.18c0-12.41-1.96-21.07-5.88-26-3.93-4.93-10.27-7.39-19.03-7.39-5.84,0-10.67,1.09-14.5,3.28-3.83,2.19-6.75,5.75-8.76,10.67-2.01,4.93-3.01,11.41-3.01,19.43Z"/>
    <path class="cls-2" d="M995.14,504.01v-193.5h36.4v193.5h-36.4Z"/>
    <path class="cls-2" d="M1062.74,344.72v-31.2h36.68v31.2h-36.68ZM1062.74,504.01v-137.4h36.4v137.4h-36.4Z"/>
    <path class="cls-1" d="M1184.81,506.74c-14.42,0-25.73-2.42-33.94-7.25-8.21-4.83-14.01-12.63-17.38-23.4-3.38-10.76-5.06-25-5.06-42.7,0-16.6,1.87-29.97,5.61-40.1,3.74-10.13,9.81-17.47,18.2-22.03,8.39-4.56,19.34-6.84,32.84-6.84,3.1,0,6.88.23,11.36.69,4.47.46,9.07,1,13.82,1.64,4.74.64,8.85,1.23,12.31,1.78l-.82,17.52c-3.11-.36-6.66-.73-10.68-1.09-4.02-.36-7.94-.68-11.77-.96-3.83-.27-7.03-.41-9.58-.41-10.4,0-18.47,1.64-24.22,4.93-5.75,3.28-9.76,8.53-12.04,15.74-2.29,7.21-3.42,16.93-3.42,29.15,0,13.32,1,23.95,3.01,31.89,2.01,7.94,5.84,13.64,11.5,17.11,5.65,3.47,14.05,5.2,25.18,5.2,2.55,0,5.79-.14,9.72-.41,3.92-.27,7.94-.59,12.04-.96,4.11-.36,7.71-.64,10.81-.82l.55,17.52c-3.65.55-7.85,1.09-12.59,1.64-4.75.55-9.4,1.05-13.96,1.51-4.56.45-8.4.68-11.5.68Z"/>
    <path class="cls-1" d="M1304.97,506.74c-15.33,0-27.23-2.65-35.72-7.94-8.49-5.29-14.42-13.32-17.79-24.09-3.38-10.76-5.06-24.36-5.06-40.78s1.87-28.64,5.61-38.86c3.74-10.22,9.9-17.88,18.48-22.99,8.57-5.11,20.07-7.66,34.49-7.66s26.18,2.56,34.76,7.66c8.58,5.11,14.73,12.77,18.48,22.99,3.74,10.22,5.61,23.17,5.61,38.86s-1.69,30.02-5.07,40.78c-3.38,10.77-9.3,18.8-17.79,24.09-8.48,5.29-20.48,7.94-35.99,7.94ZM1304.97,488.41c10.58,0,18.52-1.87,23.81-5.61,5.29-3.74,8.8-9.62,10.54-17.65,1.73-8.03,2.6-18.43,2.6-31.2s-1.1-22.62-3.29-30.11c-2.19-7.48-5.93-12.86-11.22-16.15-5.29-3.28-12.77-4.93-22.44-4.93s-16.93,1.64-22.31,4.93c-5.38,3.28-9.17,8.67-11.36,16.15-2.19,7.48-3.29,17.52-3.29,30.11s.87,23.17,2.6,31.2c1.73,8.03,5.24,13.92,10.54,17.65,5.29,3.74,13.23,5.61,23.81,5.61Z"/>
    <path class="cls-1" d="M1397.2,504.01v-136.85h21.08v9.58c3.1-1.82,6.98-3.65,11.63-5.47,4.65-1.82,9.62-3.42,14.92-4.79,5.29-1.37,10.4-2.05,15.33-2.05,9.49,0,17.24,1.23,23.26,3.7,6.02,2.46,10.72,6.39,14.09,11.77,3.38,5.38,5.75,12.32,7.12,20.8,1.37,8.48,2.05,18.75,2.05,30.79v72.53h-21.35v-71.71c0-11.86-.68-21.35-2.05-28.46-1.37-7.12-4.1-12.27-8.21-15.46-4.11-3.19-10.36-4.79-18.75-4.79-4.56,0-9.26.5-14.09,1.51-4.84,1-9.35,2.28-13.55,3.83-4.2,1.55-7.66,3.06-10.4,4.52v110.57h-21.08Z"/>
    <path class="cls-1" d="M1587.15,506.74c-4.2,0-9.26-.27-15.19-.82-5.93-.55-11.81-1.23-17.66-2.05-5.84-.82-11.04-1.59-15.6-2.33l1.09-18.34c4.56.55,9.72,1.19,15.46,1.92,5.75.73,11.36,1.33,16.83,1.78,5.47.46,9.85.69,13.14.69,7.48,0,13.68-.69,18.61-2.05,4.92-1.37,8.66-3.69,11.22-6.98,2.55-3.28,3.83-7.94,3.83-13.96,0-4.56-.96-8.12-2.87-10.67-1.92-2.55-5.47-4.65-10.67-6.3-5.2-1.64-12.73-3.19-22.58-4.65-10.22-1.64-18.75-3.69-25.59-6.16-6.84-2.46-11.91-6.16-15.19-11.08-3.29-4.93-4.93-11.95-4.93-21.07,0-10.22,2.37-18.24,7.12-24.09,4.74-5.84,10.9-9.99,18.47-12.45,7.57-2.46,15.46-3.7,23.68-3.7,5.11,0,10.72.27,16.83.82,6.11.55,12.09,1.23,17.93,2.05,5.84.82,10.86,1.6,15.05,2.33l-.55,18.34c-4.38-.73-9.49-1.41-15.33-2.05-5.84-.64-11.68-1.18-17.52-1.64-5.84-.45-10.95-.68-15.33-.68-5.47,0-10.4.59-14.78,1.78-4.38,1.19-7.85,3.24-10.4,6.16-2.55,2.92-3.83,7.03-3.83,12.32,0,4.02.91,7.25,2.74,9.72,1.82,2.46,5.29,4.52,10.4,6.16,5.11,1.64,12.49,3.28,22.17,4.93,11.31,1.83,20.39,4.11,27.23,6.84,6.84,2.74,11.81,6.57,14.92,11.5,3.1,4.93,4.65,11.86,4.65,20.8,0,10.58-2.15,19.02-6.43,25.32-4.29,6.3-10.4,10.81-18.34,13.55-7.94,2.74-17.48,4.1-28.6,4.1Z"/>
    <path class="cls-1" d="M1713.59,506.74c-11.68,0-20.62-2.37-26.82-7.12-6.2-4.74-10.45-12.13-12.73-22.17-2.28-10.03-3.42-22.99-3.42-38.86v-71.44h21.08v71.44c0,12.04.59,21.62,1.78,28.74,1.18,7.12,3.79,12.27,7.8,15.46,4.01,3.19,10.03,4.79,18.06,4.79s15.33-1.09,21.9-3.28c6.57-2.19,11.86-4.38,15.87-6.57v-110.57h21.08v136.85h-21.08v-9.58c-5.84,3.28-12.18,6.16-19.02,8.62-6.84,2.46-15.01,3.69-24.5,3.69Z"/>
    <path class="cls-1" d="M1819.24,504.01v-196.24h21.08v196.24h-21.08Z"/>
    <path class="cls-1" d="M1926.26,507.02c-9.49,0-17.02-1.46-22.58-4.38-5.57-2.92-9.54-7.98-11.91-15.19-2.37-7.21-3.56-17.38-3.56-30.52v-71.44h-19.43v-18.34h19.43v-41.88h21.08v41.88h42.97v18.34h-42.97v65.14c0,9.67.41,17.2,1.23,22.58.82,5.38,2.6,9.17,5.34,11.36,2.74,2.19,7.03,3.28,12.87,3.28,1.82,0,4.19-.09,7.12-.27,2.92-.18,5.88-.41,8.9-.69,3.01-.27,5.7-.5,8.07-.68l1.37,17.79c-2.56.36-5.57.77-9.03,1.23-3.47.45-6.89.86-10.27,1.23-3.38.36-6.25.55-8.62.55Z"/>
  </g>
</svg>