<?xml version="1.0" encoding="UTF-8"?>
<svg id="Layer_1" data-name="Layer 1" xmlns="http://www.w3.org/2000/svg" viewBox="0 0 451.2 740.55">
  <defs>
    <style>
      .cls-1 {
        fill: #0c2840;
      }

      .cls-2 {
        fill: #d8b99a;
      }
    </style>
  </defs>
  <g>
    <path class="cls-1" d="M0,738.84v-104.71h71.78v17.71H21.14v24.78h43.71v17.71H21.14v44.5H0Z"/>
    <path class="cls-1" d="M89.07,652.7v-18.57h20.07v18.57h-20.07ZM89.07,738.84v-75.85h20.07v75.85h-20.07Z"/>
    <path class="cls-1" d="M129.71,738.84v-104.71h20.07v104.71h-20.07Z"/>
    <path class="cls-1" d="M170.64,738.84v-104.71h71.78v17.71h-50.64v24.78h43.71v17.71h-43.71v44.5h-21.14Z"/>
    <path class="cls-1" d="M259.71,738.84v-104.71h20.07v104.71h-20.07Z"/>
    <path class="cls-1" d="M344.28,714.69l20,3.36c-2.57,7.33-6.63,12.92-12.18,16.75-5.55,3.83-12.49,5.75-20.82,5.75-13.19,0-22.95-4.31-29.28-12.93-5-6.9-7.5-15.62-7.5-26.14,0-12.57,3.29-22.42,9.86-29.53,6.57-7.12,14.88-10.68,24.93-10.68,11.29,0,20.19,3.73,26.71,11.18,6.52,7.45,9.64,18.87,9.36,34.25h-50.28c.14,5.95,1.76,10.58,4.86,13.89,3.09,3.31,6.95,4.96,11.57,4.96,3.14,0,5.79-.86,7.93-2.57,2.14-1.71,3.76-4.48,4.86-8.29ZM345.42,694.41c-.14-5.81-1.64-10.23-4.5-13.25-2.86-3.02-6.33-4.54-10.43-4.54-4.38,0-8,1.6-10.86,4.79-2.86,3.19-4.26,7.52-4.21,13h30Z"/>
    <path class="cls-1" d="M372.06,738.84l27.36-39.07-26.21-36.78h24.5l13.43,20.86,14.14-20.86h23.57l-25.71,35.93,28.07,39.93h-24.64l-15.43-23.5-15.57,23.5h-23.5Z"/>
  </g>
  <g>
    <path class="cls-1" d="M450.44,138.15h-70.25c-10.01,0-117.8-79.76-136.95-88.21l-5.76-3.28-1.49,1.04L41.47,170.86v366.48c1.24,5.03,3.76,9.59,7.14,13.31,0,.02.02.02.02.04.08.08.14.16.22.22.37.37.73.75,1.1,1.1.37.37.77.73,1.16,1.06.39.35.79.67,1.2,1,.61.47,1.24.96,1.91,1.4.33.22.65.43,1,.65.98.63,2.03,1.2,3.11,1.69.73.35,1.46.65,2.18.94,1.12.41,2.24.79,3.4,1.08,1.18.31,2.36.55,3.58.69.81.1,1.63.18,2.44.24.55.02,1.14.04,1.71.04h1.02c8.32,0,15.89-3.28,21.53-8.63,2.59-2.46,4.78-5.37,6.39-8.57.06-.1.14-.2.2-.3,4.36-6.7,7.41-13.55,9.56-20.49,11.7-37.86-3.48-78.31,21.59-112.1,3.5-4.72,7.79-9.32,13.04-13.74.31-.26.61-.51.9-.75,7.61-6.25,13.17-8.75,21-11.74-5.74,3.83-11.74,9.26-16.93,16.93-.49.73-1,1.47-1.47,2.24v.02c-28.53,37.02-11.36,84.62-23.79,127.97-8.4,29.29-31.14,58.39-59.41,74.18-.1.08-.22.14-.33.2-1.22-.04-2.42-.14-3.62-.28h-.02c-7.92-.81-15.45-2.97-22.35-6.29C15.98,588.44.01,564.95.01,537.88v-21.45l.02-4.32.22-82.85.81-279.56L236.19,0l214.25,138.15Z"/>
    <g>
      <path class="cls-2" d="M421.57,222.71c-1.63,24.61-11.61,40.18-37.46,42.4-35.31,3.04-106.46-8.33-134.45,7.96-17.44,10.16-23.39,28.14-22.47,47.69-17.32.77-34.09,2.32-42.33,5.37.21-55.33,32.88-96.86,89.52-101.47,47.72-3.89,99.39,4.33,147.2-1.95Z"/>
      <path class="cls-1" d="M450.43,155.94c-3.37,28.4-15.58,46.69-45.46,49.79-55.75,5.79-131.83-12.37-181.67,14.64-41.4,22.44-57.79,67.12-55.78,112.62,3.97-2.19,13.31-6.56,17.32-7.7,23.08-6.55,68.7-5.07,94.31-5.78,13.43-.37,26.99.27,40.42,0-.14,23.59-12.05,36.54-35.54,38.56-55.59,4.77-113.77-13.8-158.17,29.86h0s-.01.02-.02.03-.02.02-.04.04c-.41.45-2.81,3.08-5.49,6.22-2.22,2.61-4.63,5.57-6.25,7.95-.05.02-.11.03-.16.04-.08.03-.15.04-.23.06,3.07-66-6.94-133.21,38.53-187.59,37.65-45.03,88.89-56.41,145.17-58.84,50.44-2.18,102.49,1.78,153.08.09Z"/>
      <path class="cls-2" d="M272.42,409.97h-99.11c.31,41.88,6.29,85.32-8.16,125.63-.73,2.01-1.51,3.95-2.32,5.92-25.91,63.91-91.26,64.6-91.26,64.6-.53,0-1.08,0-1.59-.02h-.24c-.51.02-1.02.02-1.51.02-1.1,0-2.22-.02-3.32-.1.12-.06.24-.12.33-.2,28.27-15.79,51.02-44.88,59.41-74.18,12.42-43.35-4.74-90.95,23.79-127.97v-.02c.47-.77.98-1.51,1.47-2.24,5.19-7.67,11.19-13.09,16.93-16.93,11.83-7.9,22.75-9,23.98-9.1h.1c.26-.04.45-.06.67-.06h104.89c3.87,12.37-12.17,34.64-24.06,34.64Z"/>
    </g>
  </g>
</svg>